<svg viewBox="0 0 488 385" fill="none" xmlns="http://www.w3.org/2000/svg" style="max-width: 5000px; max-height: 5000px;"><g class="ApiFig1_bottom__XigQ9 ApiFig1_bottomActive__y8pRx"><path d="M324.845 358.52C321.015 360.733 314.8 360.731 310.975 358.515L48.5498 206.477L34.7054 198.456C32.8284 197.368 31.8762 195.95 31.8483 194.527V218.527C31.8762 219.95 32.8284 221.368 34.7054 222.456L310.975 382.515C314.8 384.731 321.015 384.733 324.845 382.52L483.753 290.712C485.803 289.528 486.754 287.949 486.605 286.398V263.029C486.476 264.37 485.525 265.688 483.753 266.712L469.904 274.713L324.845 358.52Z" fill="#07080A"></path><path d="M483.753 258.715L207.168 98.9016C203.342 96.691 197.136 96.6903 193.309 98.9L34.7174 190.463C32.8328 191.551 31.8763 192.972 31.8483 194.398V194.527C31.8762 195.95 32.8284 197.368 34.7054 198.456L48.5498 206.477L193.309 122.9C197.136 120.69 203.342 120.691 207.168 122.902L469.904 274.713L483.753 266.712C485.525 265.688 486.476 264.37 486.605 263.029V262.398C486.476 261.058 485.526 259.74 483.753 258.715Z" fill="#07080A"></path><path d="M310.975 358.515C314.8 360.731 321.015 360.733 324.845 358.52L469.904 274.713L207.168 122.902C203.342 120.691 197.136 120.69 193.309 122.9L48.5498 206.477L310.975 358.515Z" fill="#07080A"></path><path d="M34.7054 198.456L48.5498 206.477M34.7054 198.456C32.8284 197.368 31.8762 195.95 31.8483 194.527M34.7054 198.456V222.456M310.975 358.515C314.8 360.731 321.015 360.733 324.845 358.52M310.975 358.515L48.5498 206.477M310.975 358.515V382.515M324.845 358.52L469.904 274.713M324.845 358.52V382.52M483.753 266.712L469.904 274.713M483.753 266.712C485.525 265.688 486.476 264.37 486.605 263.029M483.753 266.712V290.712M34.7054 222.456L310.975 382.515M34.7054 222.456C32.8284 221.368 31.8762 219.95 31.8483 218.527V194.527M310.975 382.515C314.8 384.731 321.015 384.733 324.845 382.52M324.845 382.52L483.753 290.712M483.753 290.712C485.803 289.528 486.754 287.949 486.605 286.398V263.029M486.605 262.398C486.476 261.058 485.526 259.74 483.753 258.715L207.168 98.9016C203.342 96.691 197.136 96.6903 193.309 98.9L34.7174 190.463C32.8328 191.551 31.8763 192.972 31.8483 194.398M486.605 262.398V263.029M486.605 262.398C486.625 262.609 486.625 262.819 486.605 263.029M31.8483 194.398V194.527M31.8483 194.398C31.8474 194.441 31.8474 194.484 31.8483 194.527M48.5498 206.477L193.309 122.9C197.136 120.69 203.342 120.691 207.168 122.902L469.904 274.713" stroke="#545454" stroke-width="0.5" stroke-dasharray="3 1"></path><path d="M324.845 358.52C321.015 360.733 314.8 360.731 310.975 358.515L48.5498 206.477L34.7054 198.456C32.8284 197.368 31.8762 195.95 31.8483 194.527V218.527C31.8762 219.95 32.8284 221.368 34.7054 222.456L310.975 382.515C314.8 384.731 321.015 384.733 324.845 382.52L483.753 290.713C485.803 289.528 486.754 287.949 486.605 286.399V263.029C486.476 264.37 485.525 265.688 483.753 266.713L469.904 274.713L324.845 358.52Z" fill="#07090B"></path><path d="M34.7174 190.463C32.8328 191.551 31.8763 192.972 31.8483 194.398M34.7054 198.456L48.5498 206.477L310.975 358.515M34.7054 198.456C32.8284 197.368 31.8762 195.95 31.8483 194.527M34.7054 198.456V222.456M310.975 358.515C314.8 360.731 321.015 360.733 324.845 358.52M310.975 358.515V382.515M324.845 358.52L469.904 274.713L483.753 266.713M324.845 358.52V382.52M483.753 258.716C485.526 259.74 486.476 261.058 486.605 262.398M483.753 266.713C485.525 265.688 486.476 264.37 486.605 263.029M483.753 266.713V290.713M34.7054 222.456L310.975 382.515M34.7054 222.456C32.8284 221.368 31.8762 219.95 31.8483 218.527V194.527M310.975 382.515C314.8 384.731 321.015 384.733 324.845 382.52M324.845 382.52L483.753 290.713M483.753 290.713C485.803 289.528 486.754 287.949 486.605 286.399V263.029M486.605 262.398V263.029M486.605 262.398C486.625 262.609 486.625 262.819 486.605 263.029M31.8483 194.398V194.527M31.8483 194.398C31.8474 194.441 31.8474 194.484 31.8483 194.527" stroke="#545454" stroke-width="0.5" stroke-dasharray="3 1"></path></g><g class="middle"><path d="M324.845 317.52C321.015 319.733 314.8 319.731 310.975 317.515L34.7054 157.456C33.5936 156.812 32.8063 156.052 32.3433 155.243C32.0247 154.687 31.8597 154.107 31.8483 153.527V154.243V156.527C31.8762 157.95 32.8284 159.368 34.7054 160.456L310.975 320.515C314.8 322.731 321.015 322.733 324.845 320.52L483.753 228.712C485.803 227.528 486.754 225.949 486.605 224.398V222.898V222.029C486.558 222.514 486.404 222.997 486.142 223.463C485.68 224.286 484.884 225.059 483.753 225.712L324.845 317.52Z" fill="#02193B"></path><path d="M483.753 217.715L207.168 57.9016C203.342 55.691 197.136 55.6903 193.309 57.9L34.7174 149.463C32.8328 150.551 31.8763 151.972 31.8483 153.398V153.527C31.8597 154.107 32.0247 154.687 32.3433 155.243C32.8063 156.052 33.5936 156.812 34.7054 157.456L310.975 317.515C314.8 319.731 321.015 319.733 324.845 317.52L483.753 225.712C484.884 225.059 485.68 224.286 486.142 223.463C486.404 222.997 486.558 222.514 486.605 222.029V221.398C486.476 220.058 485.526 218.74 483.753 217.715Z" fill="#02193B"></path><path d="M34.7054 157.456L310.975 317.515M34.7054 157.456C33.5936 156.812 32.8063 156.052 32.3433 155.243C32.0247 154.687 31.8597 154.107 31.8483 153.527M34.7054 157.456V160.456M310.975 317.515C314.8 319.731 321.015 319.733 324.845 317.52M310.975 317.515V320.515M324.845 317.52L483.753 225.712M324.845 317.52V320.52M483.753 225.712C484.884 225.059 485.68 224.286 486.142 223.463C486.404 222.997 486.558 222.514 486.605 222.029M483.753 225.712V228.712M34.7054 160.456L310.975 320.515M34.7054 160.456C32.8284 159.368 31.8762 157.95 31.8483 156.527V154.243V153.527M310.975 320.515C314.8 322.731 321.015 322.733 324.845 320.52M324.845 320.52L483.753 228.712M483.753 228.712C485.803 227.528 486.754 225.949 486.605 224.398V222.898V222.029M486.605 221.398C486.476 220.058 485.526 218.74 483.753 217.715L207.168 57.9016C203.342 55.691 197.136 55.6903 193.309 57.9L34.7174 149.463C32.8328 150.551 31.8763 151.972 31.8483 153.398M486.605 221.398C486.625 221.609 486.625 221.819 486.605 222.029M486.605 221.398V222.029M31.8483 153.398C31.8474 153.441 31.8474 153.484 31.8483 153.527M31.8483 153.398V153.527" stroke="#143CA3" stroke-width="0.5"></path><g opacity="0.75"><rect x="-1.49012e-08" y="0.25" width="9.88173" height="9.88173" rx="3.64315" transform="matrix(0.866025 0.5 -0.866025 0.5 150.388 94.1543)" stroke="#63A1FF" stroke-width="0.5"></rect><rect x="-1.49012e-08" y="0.25" width="45.5689" height="5.98858" rx="2.99429" transform="matrix(0.866025 0.5 -0.866025 0.5 162.751 103.238)" stroke="#63A1FF" stroke-width="0.5"></rect><rect x="-1.49012e-08" y="0.25" width="19.6146" height="5.98858" rx="2.99429" transform="matrix(0.866025 0.5 -0.866025 0.5 207.705 129.192)" stroke="#143CA3" stroke-width="0.5"></rect><rect x="-1.49012e-08" y="0.25" width="18.9657" height="5.98858" rx="2.99429" transform="matrix(0.866025 0.5 -0.866025 0.5 402.694 241.77)" stroke="#143CA3" stroke-width="0.5"></rect><rect x="-1.49012e-08" y="0.25" width="9.88173" height="9.88173" rx="3.64315" transform="matrix(0.866025 0.5 -0.866025 0.5 127.911 107.132)" stroke="#63A1FF" stroke-width="0.5"></rect><rect x="-1.49012e-08" y="0.25" width="45.5689" height="5.98858" rx="2.99429" transform="matrix(0.866025 0.5 -0.866025 0.5 140.274 116.216)" stroke="#63A1FF" stroke-width="0.5"></rect><rect x="-1.49012e-08" y="0.25" width="19.6146" height="5.98858" rx="2.99429" transform="matrix(0.866025 0.5 -0.866025 0.5 185.228 142.17)" stroke="#143CA3" stroke-width="0.5"></rect><rect x="-1.49012e-08" y="0.25" width="18.9657" height="5.98858" rx="2.99429" transform="matrix(0.866025 0.5 -0.866025 0.5 380.217 254.747)" stroke="#143CA3" stroke-width="0.5"></rect><rect x="-1.49012e-08" y="0.25" width="9.88173" height="9.88173" rx="3.64315" transform="matrix(0.866025 0.5 -0.866025 0.5 105.434 120.109)" stroke="#63A1FF" stroke-width="0.5"></rect><rect x="-1.49012e-08" y="0.25" width="45.5689" height="5.98858" rx="2.99429" transform="matrix(0.866025 0.5 -0.866025 0.5 117.797 129.193)" stroke="#63A1FF" stroke-width="0.5"></rect><rect x="-1.49012e-08" y="0.25" width="19.6146" height="5.98858" rx="2.99429" transform="matrix(0.866025 0.5 -0.866025 0.5 162.751 155.147)" stroke="#143CA3" stroke-width="0.5"></rect><rect x="-1.49012e-08" y="0.25" width="18.9657" height="5.98858" rx="2.99429" transform="matrix(0.866025 0.5 -0.866025 0.5 357.739 267.724)" stroke="#143CA3" stroke-width="0.5"></rect><rect x="-1.49012e-08" y="0.25" width="9.88173" height="9.88173" rx="3.64315" transform="matrix(0.866025 0.5 -0.866025 0.5 82.9572 133.086)" stroke="#63A1FF" stroke-width="0.5"></rect><rect x="-1.49012e-08" y="0.25" width="45.5689" height="5.98858" rx="2.99429" transform="matrix(0.866025 0.5 -0.866025 0.5 95.3195 142.17)" stroke="#63A1FF" stroke-width="0.5"></rect><rect x="-1.49012e-08" y="0.25" width="19.6146" height="5.98858" rx="2.99429" transform="matrix(0.866025 0.5 -0.866025 0.5 140.274 168.124)" stroke="#143CA3" stroke-width="0.5"></rect><rect x="-1.49012e-08" y="0.25" width="18.9657" height="5.98858" rx="2.99429" transform="matrix(0.866025 0.5 -0.866025 0.5 335.262 280.701)" stroke="#143CA3" stroke-width="0.5"></rect><rect x="-1.49012e-08" y="0.25" width="9.88173" height="9.88173" rx="3.64315" transform="matrix(0.866025 0.5 -0.866025 0.5 60.4802 146.063)" stroke="#63A1FF" stroke-width="0.5"></rect><rect x="-1.49012e-08" y="0.25" width="45.5689" height="5.98858" rx="2.99429" transform="matrix(0.866025 0.5 -0.866025 0.5 72.8425 155.147)" stroke="#63A1FF" stroke-width="0.5"></rect><rect x="-1.49012e-08" y="0.25" width="19.6146" height="5.98858" rx="2.99429" transform="matrix(0.866025 0.5 -0.866025 0.5 117.797 181.101)" stroke="#143CA3" stroke-width="0.5"></rect><rect x="-1.49012e-08" y="0.25" width="18.9657" height="5.98858" rx="2.99429" transform="matrix(0.866025 0.5 -0.866025 0.5 312.785 293.678)" stroke="#143CA3" stroke-width="0.5"></rect></g></g><g class="ApiFig1_focus__4Hnww ApiFig1_focusActive__tvwAn"><path d="M170.722 62.1264C173.591 60.4696 178.244 60.4696 181.114 62.1264L455.057 220.287C456.514 221.129 457.231 222.235 457.209 223.338C457.191 224.2 456.721 225.059 455.799 225.787C455.578 225.962 455.33 226.13 455.057 226.287L442.972 233.265C440.102 234.921 435.449 234.921 432.58 233.265L158.637 75.1036C158.363 74.9457 158.116 74.7784 157.894 74.6036C156.963 73.8677 156.493 72.9976 156.485 72.1265C156.474 71.0331 157.192 69.9378 158.637 69.1036L170.722 62.1264Z" fill="#63A1FF"></path><path d="M455.057 226.287L442.972 233.265C440.102 234.921 435.449 234.921 432.58 233.265L158.637 75.1036C158.363 74.9457 158.116 74.7784 157.894 74.6036C156.963 73.8677 156.493 72.9976 156.485 72.1265V74.0778C156.473 75.1722 157.19 76.2686 158.637 77.1036L432.58 235.265C435.449 236.921 440.102 236.921 442.972 235.265L455.057 228.287C456.47 227.472 457.187 226.407 457.209 225.337V223.338C457.191 224.2 456.721 225.059 455.799 225.787C455.578 225.962 455.33 226.13 455.057 226.287Z" fill="#3D5DCB"></path><path d="M158.637 75.1036L432.58 233.265M158.637 75.1036C158.363 74.9457 158.116 74.7784 157.894 74.6036C156.963 73.8677 156.493 72.9976 156.485 72.1265M158.637 75.1036V77.1036M442.972 233.265L455.057 226.287C455.33 226.13 455.578 225.962 455.799 225.787C456.721 225.059 457.191 224.2 457.209 223.338M442.972 233.265C440.102 234.921 435.449 234.921 432.58 233.265M442.972 233.265V235.265M432.58 233.265V235.265M158.637 77.1036L432.58 235.265M158.637 77.1036C157.19 76.2686 156.473 75.1722 156.485 74.0778V72.1265M442.972 235.265L455.057 228.287C456.47 227.472 457.187 226.407 457.209 225.337V223.338M442.972 235.265C440.102 236.921 435.449 236.921 432.58 235.265M457.209 223.338C457.231 222.235 456.514 221.129 455.057 220.287L181.114 62.1264C178.244 60.4696 173.591 60.4696 170.722 62.1264L158.637 69.1036C157.192 69.9378 156.474 71.0331 156.485 72.1265" stroke="#143CA3" stroke-width="0.5"></path><rect x="-1.49012e-08" y="0.25" width="9.88173" height="9.88173" rx="3.64315" transform="matrix(0.866025 0.5 -0.866025 0.5 174.691 66.0088)" stroke="#1456A3" stroke-width="0.5"></rect><rect x="-1.49012e-08" y="0.25" width="45.5689" height="5.98858" rx="2.99429" transform="matrix(0.866025 0.5 -0.866025 0.5 187.053 75.0928)" stroke="#1456A3" stroke-width="0.5"></rect><rect x="-1.49012e-08" y="0.25" width="30.6452" height="5.98858" rx="2.99429" transform="matrix(0.866025 0.5 -0.866025 0.5 232.008 101.047)" stroke="#3C6AC5" stroke-width="0.5"></rect><rect x="-1.49012e-08" y="0.25" width="18.9657" height="5.98858" rx="2.99429" transform="matrix(0.866025 0.5 -0.866025 0.5 426.281 213.211)" stroke="#3C6AC5" stroke-width="0.5"></rect></g><g class="ApiFig1_selectedItem__Lchoi ApiFig1_label__fJyyX ApiFig1_labelActive__wEl2m"><rect width="108" height="36" transform="translate(366 52.2432)" fill="#08090C"></rect><path d="M413.715 199.065C412.978 199.065 412.382 199.662 412.382 200.398C412.382 201.135 412.978 201.731 413.715 201.731C414.451 201.731 415.048 201.135 415.048 200.398C415.048 199.662 414.451 199.065 413.715 199.065ZM413.465 83.7432L413.465 200.398L413.965 200.398L413.965 83.7432L413.465 83.7432Z" fill="#525252"></path><path d="M379.35 71.9232C379.41 72.2432 379.523 72.5265 379.69 72.7732C379.857 73.0198 380.07 73.2098 380.33 73.3432C380.597 73.4765 380.9 73.5432 381.24 73.5432C381.52 73.5432 381.767 73.5032 381.98 73.4232C382.2 73.3365 382.37 73.2132 382.49 73.0532C382.617 72.8865 382.68 72.6865 382.68 72.4532C382.68 72.0998 382.523 71.8065 382.21 71.5732C381.897 71.3332 381.403 71.1165 380.73 70.9232C380.11 70.7498 379.603 70.5032 379.21 70.1832C378.817 69.8632 378.62 69.4432 378.62 68.9232C378.62 68.5365 378.717 68.1965 378.91 67.9032C379.103 67.6098 379.367 67.3832 379.7 67.2232C380.04 67.0632 380.42 66.9832 380.84 66.9832C381.3 66.9832 381.717 67.0798 382.09 67.2732C382.47 67.4665 382.773 67.7365 383 68.0832C383.227 68.4232 383.363 68.8065 383.41 69.2332L382.53 69.2932C382.49 68.9998 382.39 68.7398 382.23 68.5132C382.077 68.2865 381.877 68.1132 381.63 67.9932C381.383 67.8665 381.113 67.8032 380.82 67.8032C380.447 67.8032 380.133 67.9065 379.88 68.1132C379.627 68.3198 379.5 68.5898 379.5 68.9232C379.5 69.1832 379.577 69.3965 379.73 69.5632C379.89 69.7298 380.083 69.8598 380.31 69.9532C380.537 70.0465 380.847 70.1498 381.24 70.2632C381.26 70.2632 381.29 70.2732 381.33 70.2932C382.003 70.4932 382.543 70.7665 382.95 71.1132C383.357 71.4532 383.56 71.8732 383.56 72.3732C383.56 72.7865 383.447 73.1465 383.22 73.4532C382.993 73.7532 382.697 73.9798 382.33 74.1332C381.963 74.2865 381.577 74.3632 381.17 74.3632C380.69 74.3632 380.25 74.2632 379.85 74.0632C379.457 73.8632 379.137 73.5832 378.89 73.2232C378.643 72.8632 378.503 72.4498 378.47 71.9832L379.35 71.9232ZM389.856 67.1432V67.9632H386.246V70.2832H389.736V71.0832H386.246V73.4232H389.936V74.2432H385.406V67.1432H389.856ZM391.902 67.1432H392.742V73.8432L392.312 73.4232H396.502V74.2432H391.902V67.1432ZM402.848 67.1432V67.9632H399.238V70.2832H402.728V71.0832H399.238V73.4232H402.928V74.2432H398.398V67.1432H402.848ZM409.644 72.0132C409.504 72.7598 409.214 73.3465 408.774 73.7732C408.334 74.1932 407.784 74.4032 407.124 74.4032C406.551 74.4032 406.054 74.2532 405.634 73.9532C405.221 73.6532 404.908 73.2265 404.694 72.6732C404.481 72.1198 404.374 71.4632 404.374 70.7032C404.374 69.9365 404.481 69.2765 404.694 68.7232C404.908 68.1632 405.221 67.7332 405.634 67.4332C406.054 67.1332 406.551 66.9832 407.124 66.9832C407.744 66.9832 408.268 67.1798 408.694 67.5732C409.121 67.9665 409.418 68.5132 409.584 69.2132L408.684 69.2732C408.558 68.8065 408.361 68.4465 408.094 68.1932C407.828 67.9332 407.504 67.8032 407.124 67.8032C406.724 67.8032 406.384 67.9165 406.104 68.1432C405.831 68.3698 405.621 68.6998 405.474 69.1332C405.328 69.5665 405.254 70.0898 405.254 70.7032C405.254 71.3165 405.328 71.8398 405.474 72.2732C405.621 72.6998 405.831 73.0265 406.104 73.2532C406.384 73.4732 406.724 73.5832 407.124 73.5832C407.538 73.5832 407.884 73.4432 408.164 73.1632C408.451 72.8765 408.648 72.4732 408.754 71.9532L409.644 72.0132ZM416.07 67.9632H413.9V74.2432H413.06V67.9632H410.89V67.1432H416.07V67.9632ZM422.337 67.1432V67.9632H418.727V70.2832H422.217V71.0832H418.727V73.4232H422.417V74.2432H417.887V67.1432H422.337ZM425.953 67.1432C426.613 67.1432 427.183 67.2832 427.663 67.5632C428.149 67.8365 428.523 68.2398 428.783 68.7732C429.043 69.3065 429.173 69.9498 429.173 70.7032C429.173 71.4498 429.046 72.0898 428.793 72.6232C428.539 73.1498 428.176 73.5532 427.703 73.8332C427.229 74.1065 426.666 74.2432 426.013 74.2432H424.233V67.1432H425.953ZM425.953 73.4232C426.706 73.4232 427.283 73.1965 427.683 72.7432C428.089 72.2832 428.293 71.6032 428.293 70.7032C428.293 69.7965 428.093 69.1132 427.693 68.6532C427.293 68.1932 426.713 67.9632 425.953 67.9632H425.073V73.4232H425.953ZM441.505 67.9632H439.885V73.4232H441.565V74.2432H437.365V73.4232H439.045V67.9632H437.425V67.1432H441.505V67.9632ZM448.551 67.9632H446.381V74.2432H445.541V67.9632H443.371V67.1432H448.551V67.9632ZM454.817 67.1432V67.9632H451.207V70.2832H454.697V71.0832H451.207V73.4232H454.897V74.2432H450.367V67.1432H454.817ZM457.943 67.1432L459.143 73.2932H458.763L459.963 67.1432H461.313V74.2432H460.473V67.8032H460.523L459.313 73.7432H458.593L457.383 67.8032H457.433V74.2432H456.593V67.1432H457.943Z" fill="#6A6B6C"></path></g><g class="ApiFig1_top__gJ6NC ApiFig1_topActive__VxzQW"><path d="M47.2666 86.2432L338.06 254.133L325.511 261.378C321.685 263.587 315.481 263.587 311.654 261.378L34.7174 101.488C33.7008 100.902 32.9543 100.218 32.4779 99.4885C31.9358 98.6588 31.7434 97.7703 31.9007 96.8988C32.1255 95.6534 33.0644 94.4429 34.7174 93.4885L47.2666 86.2432Z" fill="#07080A"></path><path d="M338.06 254.133L325.511 261.378C321.685 263.587 315.481 263.587 311.654 261.378L34.7174 101.488C33.7008 100.902 32.9543 100.218 32.4779 99.4885C32.1224 100.033 31.9173 100.602 31.8626 101.175L31.8575 101.743C31.9632 103.105 32.9165 104.449 34.7174 105.488L311.654 265.378C315.481 267.587 321.685 267.587 325.511 265.378L338.06 258.133V254.133Z" fill="#07080A"></path><path d="M338.06 254.133L47.2666 86.2432L34.7174 93.4885C33.0644 94.4429 32.1255 95.6534 31.9007 96.8988M338.06 254.133L325.511 261.378C321.685 263.587 315.481 263.587 311.654 261.378L34.7174 101.488C33.7008 100.902 32.9543 100.218 32.4779 99.4885M338.06 254.133V258.133L325.511 265.378C321.685 267.587 315.481 267.587 311.654 265.378L34.7174 105.488C32.9165 104.449 31.9632 103.105 31.8575 101.743M31.8575 101.743L31.8626 101.175M31.8575 101.743C31.8429 101.554 31.8445 101.364 31.8626 101.175M31.9007 96.8988C31.7434 97.7703 31.9358 98.6588 32.4779 99.4885M31.9007 96.8988L31.8626 101.175M32.4779 99.4885C32.1224 100.033 31.9173 100.602 31.8626 101.175" stroke="#545454" stroke-width="0.5"></path><path d="M177.848 14.8321L468.641 182.722V178.722L177.848 10.8321V14.8321Z" fill="#0E0F11"></path><path d="M484.112 161.79L207.175 1.90002C203.349 -0.30912 197.145 -0.309121 193.318 1.90002L177.848 10.8321L468.641 178.722L484.112 169.79C485.129 169.203 485.875 168.519 486.352 167.79C486.772 167.147 486.982 166.468 486.982 165.79C486.982 164.342 486.025 162.894 484.112 161.79Z" fill="#07080A"></path><path d="M468.641 178.722L484.112 169.79C485.129 169.203 485.875 168.519 486.352 167.79M468.641 178.722V182.722M468.641 178.722L177.848 10.8321M177.848 10.8321L193.318 1.90002C197.145 -0.309121 203.349 -0.30912 207.175 1.90002L484.112 161.79C486.025 162.894 486.982 164.342 486.982 165.79M177.848 10.8321V14.8321L468.641 182.722M468.641 182.722L484.112 173.79C486.922 172.168 487.668 169.805 486.352 167.79M486.982 165.79V170.243M486.982 165.79C486.982 166.468 486.772 167.147 486.352 167.79" stroke="#545454" stroke-width="0.5"></path><rect x="-1.49012e-08" y="0.25" width="15.0726" height="15.0726" rx="3.64315" transform="matrix(0.866025 0.5 -0.866025 0.5 201.55 4.36816)" stroke="#424242" stroke-width="0.5"></rect><rect x="-1.49012e-08" y="0.25" width="74.7675" height="5.98858" rx="2.99429" transform="matrix(0.866025 0.5 -0.866025 0.5 218.972 18.9678)" stroke="#424242" stroke-width="0.5"></rect><path d="M324.845 261.52C321.015 263.733 314.8 263.731 310.975 261.515L34.7054 101.456C33.5936 100.812 32.8063 100.052 32.3433 99.2432C32.0247 98.6867 31.8597 98.1074 31.8483 97.5273V98.2432V101.527C31.8762 102.95 32.8284 104.368 34.7054 105.456L310.975 265.515C314.8 267.731 321.015 267.733 324.845 265.52L483.753 173.712C485.803 172.528 486.754 170.949 486.605 169.398V166.898V166.029C486.558 166.514 486.404 166.997 486.142 167.463C485.68 168.286 484.884 169.059 483.753 169.712L324.845 261.52Z" fill="#0E0F11"></path><path d="M177.848 14.8184V10.8266L47.2699 86.2157L51.0583 88.3843L177.848 14.8184Z" fill="#0E0F11"></path><path d="M34.7054 101.456L310.975 261.515M34.7054 101.456C33.5936 100.812 32.8063 100.052 32.3433 99.2432C32.0247 98.6867 31.8597 98.1074 31.8483 97.5273M34.7054 101.456V105.456M310.975 261.515C314.8 263.731 321.015 263.733 324.845 261.52M310.975 261.515V265.515M324.845 261.52L483.753 169.712M324.845 261.52V265.52M483.753 169.712C484.884 169.059 485.68 168.286 486.142 167.463C486.404 166.997 486.558 166.514 486.605 166.029M483.753 169.712V173.712M34.7054 105.456L310.975 265.515M34.7054 105.456C32.8284 104.368 31.8762 102.95 31.8483 101.527V98.2432V97.5273M310.975 265.515C314.8 267.731 321.015 267.733 324.845 265.52M324.845 265.52L483.753 173.712M483.753 173.712C485.803 172.528 486.754 170.949 486.605 169.398V166.898V166.029M486.605 165.398C486.476 164.058 485.526 162.74 483.753 161.715L207.168 1.90161C205.877 1.1557 204.315 0.661399 202.665 0.418713C199.425 -0.0578491 195.845 0.435868 193.309 1.90002L177.848 10.8266M486.605 165.398C486.625 165.609 486.625 165.819 486.605 166.029M486.605 165.398V166.029M31.8483 97.3984C31.8763 95.9722 32.8328 94.5509 34.7174 93.4628L47.2699 86.2157M31.8483 97.3984C31.8474 97.4414 31.8474 97.4844 31.8483 97.5273M31.8483 97.3984V97.5273M177.848 10.8266V14.8184L51.0583 88.3843L47.2699 86.2157M177.848 10.8266L47.2699 86.2157" stroke="#545454" stroke-width="0.5"></path><rect x="-1.49012e-08" y="0.25" width="9.90695" height="9.88173" rx="2.75" transform="matrix(0.866025 0.5 -0.866025 0.5 49.0544 93.3682)" stroke="#424242" stroke-width="0.5"></rect><rect x="-1.49012e-08" y="0.25" width="43.2668" height="6.5" rx="3.25" transform="matrix(0.866025 0.5 -0.866025 0.5 283.17 231.229)" stroke="#424242" stroke-width="0.5"></rect><rect x="-1.49012e-08" y="0.25" width="43.7295" height="6.5" rx="3.25" transform="matrix(0.866025 0.5 -0.866025 0.5 235.623 203.321)" stroke="#424242" stroke-width="0.5"></rect></g><g class="ApiFig1_listContent__CNRZH ApiFig1_label__fJyyX ApiFig1_labelActive__wEl2m"><rect width="102" height="36" transform="translate(98 316.243)" fill="#08090C"></rect><path d="M143.232 219.684C143.969 219.684 144.566 219.087 144.566 218.351C144.566 217.614 143.969 217.017 143.232 217.017C142.496 217.017 141.899 217.614 141.899 218.351C141.899 219.087 142.496 219.684 143.232 219.684ZM143.482 324.525L143.482 218.351L142.982 218.351L142.982 324.525L143.482 324.525Z" fill="#494949"></path><path d="M110.91 331.143H111.75V337.843L111.32 337.423H115.51V338.243H110.91V331.143ZM121.536 331.963H119.916V337.423H121.596V338.243H117.396V337.423H119.076V331.963H117.456V331.143H121.536V331.963ZM124.342 335.923C124.402 336.243 124.516 336.526 124.682 336.773C124.849 337.02 125.062 337.21 125.322 337.343C125.589 337.476 125.892 337.543 126.232 337.543C126.512 337.543 126.759 337.503 126.972 337.423C127.192 337.336 127.362 337.213 127.482 337.053C127.609 336.886 127.672 336.686 127.672 336.453C127.672 336.1 127.516 335.806 127.202 335.573C126.889 335.333 126.396 335.116 125.722 334.923C125.102 334.75 124.596 334.503 124.202 334.183C123.809 333.863 123.612 333.443 123.612 332.923C123.612 332.536 123.709 332.196 123.902 331.903C124.096 331.61 124.359 331.383 124.692 331.223C125.032 331.063 125.412 330.983 125.832 330.983C126.292 330.983 126.709 331.08 127.082 331.273C127.462 331.466 127.766 331.736 127.992 332.083C128.219 332.423 128.356 332.806 128.402 333.233L127.522 333.293C127.482 333 127.382 332.74 127.222 332.513C127.069 332.286 126.869 332.113 126.622 331.993C126.376 331.866 126.106 331.803 125.812 331.803C125.439 331.803 125.126 331.906 124.872 332.113C124.619 332.32 124.492 332.59 124.492 332.923C124.492 333.183 124.569 333.396 124.722 333.563C124.882 333.73 125.076 333.86 125.302 333.953C125.529 334.046 125.839 334.15 126.232 334.263C126.252 334.263 126.282 334.273 126.322 334.293C126.996 334.493 127.536 334.766 127.942 335.113C128.349 335.453 128.552 335.873 128.552 336.373C128.552 336.786 128.439 337.146 128.212 337.453C127.986 337.753 127.689 337.98 127.322 338.133C126.956 338.286 126.569 338.363 126.162 338.363C125.682 338.363 125.242 338.263 124.842 338.063C124.449 337.863 124.129 337.583 123.882 337.223C123.636 336.863 123.496 336.45 123.462 335.983L124.342 335.923ZM135.078 331.963H132.908V338.243H132.068V331.963H129.898V331.143H135.078V331.963ZM148.14 336.013C148 336.76 147.71 337.346 147.27 337.773C146.83 338.193 146.28 338.403 145.62 338.403C145.047 338.403 144.55 338.253 144.13 337.953C143.717 337.653 143.404 337.226 143.19 336.673C142.977 336.12 142.87 335.463 142.87 334.703C142.87 333.936 142.977 333.276 143.19 332.723C143.404 332.163 143.717 331.733 144.13 331.433C144.55 331.133 145.047 330.983 145.62 330.983C146.24 330.983 146.764 331.18 147.19 331.573C147.617 331.966 147.914 332.513 148.08 333.213L147.18 333.273C147.054 332.806 146.857 332.446 146.59 332.193C146.324 331.933 146 331.803 145.62 331.803C145.22 331.803 144.88 331.916 144.6 332.143C144.327 332.37 144.117 332.7 143.97 333.133C143.824 333.566 143.75 334.09 143.75 334.703C143.75 335.316 143.824 335.84 143.97 336.273C144.117 336.7 144.327 337.026 144.6 337.253C144.88 337.473 145.22 337.583 145.62 337.583C146.034 337.583 146.38 337.443 146.66 337.163C146.947 336.876 147.144 336.473 147.25 335.953L148.14 336.013ZM151.977 338.403C151.43 338.403 150.96 338.253 150.567 337.953C150.18 337.653 149.883 337.226 149.677 336.673C149.47 336.113 149.367 335.456 149.367 334.703C149.367 333.943 149.47 333.283 149.677 332.723C149.883 332.163 150.18 331.733 150.567 331.433C150.96 331.133 151.43 330.983 151.977 330.983C152.523 330.983 152.99 331.133 153.377 331.433C153.77 331.733 154.07 332.163 154.277 332.723C154.483 333.283 154.587 333.943 154.587 334.703C154.587 335.456 154.483 336.113 154.277 336.673C154.07 337.226 153.77 337.653 153.377 337.953C152.99 338.253 152.523 338.403 151.977 338.403ZM151.977 337.583C152.337 337.583 152.647 337.466 152.907 337.233C153.173 337 153.373 336.666 153.507 336.233C153.647 335.8 153.717 335.29 153.717 334.703C153.717 334.11 153.647 333.596 153.507 333.163C153.373 332.723 153.173 332.386 152.907 332.153C152.647 331.92 152.337 331.803 151.977 331.803C151.617 331.803 151.303 331.92 151.037 332.153C150.777 332.386 150.577 332.723 150.437 333.163C150.303 333.596 150.237 334.11 150.237 334.703C150.237 335.29 150.303 335.8 150.437 336.233C150.577 336.666 150.777 337 151.037 337.233C151.303 337.466 151.617 337.583 151.977 337.583ZM157.453 331.143L159.843 337.183V331.143H160.683V338.243H159.393L157.103 332.403V338.243H156.263V331.143H157.453ZM167.559 331.963H165.389V338.243H164.549V331.963H162.379V331.143H167.559V331.963ZM173.825 331.143V331.963H170.215V334.283H173.705V335.083H170.215V337.423H173.905V338.243H169.375V331.143H173.825ZM176.941 331.143L179.331 337.183V331.143H180.171V338.243H178.881L176.591 332.403V338.243H175.751V331.143H176.941ZM187.047 331.963H184.877V338.243H184.037V331.963H181.867V331.143H187.047V331.963Z" fill="#6A6B6C"></path></g><g class="ApiFig1_searchBar__s05nU ApiFig1_label__fJyyX ApiFig1_labelActive__wEl2m"><rect width="89" height="36" transform="translate(281 3.24316)" fill="#08090C"></rect><rect x="326.855" y="35.4766" width="43.8052" height="5.99999" transform="rotate(90 326.855 35.4766)" fill="#07080A"></rect><path d="M323.855 78.948C323.119 78.948 322.522 79.5449 322.522 80.2813C322.522 81.0177 323.119 81.6146 323.855 81.6146C324.592 81.6146 325.189 81.0177 325.189 80.2813C325.189 79.5449 324.592 78.948 323.855 78.948ZM323.605 37.4521L323.605 80.2813L324.105 80.2813L324.105 37.4521L323.605 37.4521Z" fill="#525252"></path><path d="M294.35 22.9232C294.41 23.2432 294.523 23.5265 294.69 23.7732C294.857 24.0198 295.07 24.2098 295.33 24.3432C295.597 24.4765 295.9 24.5432 296.24 24.5432C296.52 24.5432 296.767 24.5032 296.98 24.4232C297.2 24.3365 297.37 24.2132 297.49 24.0532C297.617 23.8865 297.68 23.6865 297.68 23.4532C297.68 23.0998 297.523 22.8065 297.21 22.5732C296.897 22.3332 296.403 22.1165 295.73 21.9232C295.11 21.7498 294.603 21.5032 294.21 21.1832C293.817 20.8632 293.62 20.4432 293.62 19.9232C293.62 19.5365 293.717 19.1965 293.91 18.9032C294.103 18.6098 294.367 18.3832 294.7 18.2232C295.04 18.0632 295.42 17.9832 295.84 17.9832C296.3 17.9832 296.717 18.0798 297.09 18.2732C297.47 18.4665 297.773 18.7365 298 19.0832C298.227 19.4232 298.363 19.8065 298.41 20.2332L297.53 20.2932C297.49 19.9998 297.39 19.7398 297.23 19.5132C297.077 19.2865 296.877 19.1132 296.63 18.9932C296.383 18.8665 296.113 18.8032 295.82 18.8032C295.447 18.8032 295.133 18.9065 294.88 19.1132C294.627 19.3198 294.5 19.5898 294.5 19.9232C294.5 20.1832 294.577 20.3965 294.73 20.5632C294.89 20.7298 295.083 20.8598 295.31 20.9532C295.537 21.0465 295.847 21.1498 296.24 21.2632C296.26 21.2632 296.29 21.2732 296.33 21.2932C297.003 21.4932 297.543 21.7665 297.95 22.1132C298.357 22.4532 298.56 22.8732 298.56 23.3732C298.56 23.7865 298.447 24.1465 298.22 24.4532C297.993 24.7532 297.697 24.9798 297.33 25.1332C296.963 25.2865 296.577 25.3632 296.17 25.3632C295.69 25.3632 295.25 25.2632 294.85 25.0632C294.457 24.8632 294.137 24.5832 293.89 24.2232C293.643 23.8632 293.503 23.4498 293.47 22.9832L294.35 22.9232ZM304.856 18.1432V18.9632H301.246V21.2832H304.736V22.0832H301.246V24.4232H304.936V25.2432H300.406V18.1432H304.856ZM308.432 18.1432H309.552L311.722 25.2432H310.862L308.992 18.8832L307.122 25.2432H306.262L308.432 18.1432ZM307.352 23.2132L307.642 22.4432H310.342L310.632 23.2132H307.352ZM315.458 18.1432C316.212 18.1432 316.802 18.3365 317.228 18.7232C317.662 19.1032 317.878 19.6232 317.878 20.2832C317.878 20.5965 317.805 20.8832 317.658 21.1432C317.518 21.4032 317.332 21.6098 317.098 21.7632C316.872 21.9165 316.635 21.9998 316.388 22.0132L316.078 21.8932C316.645 21.8932 317.052 21.9898 317.298 22.1832C317.552 22.3698 317.702 22.6932 317.748 23.1532L317.948 25.2432H317.098L316.918 23.2332C316.892 22.9198 316.758 22.6998 316.518 22.5732C316.285 22.4398 315.905 22.3732 315.378 22.3732H314.068V25.2432H313.228V18.1432H315.458ZM315.458 21.5532C315.952 21.5532 316.332 21.4432 316.598 21.2232C316.865 21.0032 316.998 20.6832 316.998 20.2632C316.998 19.8498 316.865 19.5298 316.598 19.3032C316.332 19.0765 315.952 18.9632 315.458 18.9632H314.068V21.5532H315.458ZM324.644 23.0132C324.504 23.7598 324.214 24.3465 323.774 24.7732C323.334 25.1932 322.784 25.4032 322.124 25.4032C321.551 25.4032 321.054 25.2532 320.634 24.9532C320.221 24.6532 319.908 24.2265 319.694 23.6732C319.481 23.1198 319.374 22.4632 319.374 21.7032C319.374 20.9365 319.481 20.2765 319.694 19.7232C319.908 19.1632 320.221 18.7332 320.634 18.4332C321.054 18.1332 321.551 17.9832 322.124 17.9832C322.744 17.9832 323.268 18.1798 323.694 18.5732C324.121 18.9665 324.418 19.5132 324.584 20.2132L323.684 20.2732C323.558 19.8065 323.361 19.4465 323.094 19.1932C322.828 18.9332 322.504 18.8032 322.124 18.8032C321.724 18.8032 321.384 18.9165 321.104 19.1432C320.831 19.3698 320.621 19.6998 320.474 20.1332C320.328 20.5665 320.254 21.0898 320.254 21.7032C320.254 22.3165 320.328 22.8398 320.474 23.2732C320.621 23.6998 320.831 24.0265 321.104 24.2532C321.384 24.4732 321.724 24.5832 322.124 24.5832C322.538 24.5832 322.884 24.4432 323.164 24.1632C323.451 23.8765 323.648 23.4732 323.754 22.9532L324.644 23.0132ZM326.19 18.1432H327.03V21.5932L326.61 21.2532H330.35L329.93 21.5932V18.1432H330.77V25.2432H329.93V21.7432L330.35 22.0832H326.61L327.03 21.7432V25.2432H326.19V18.1432ZM339.263 18.1432H341.213C342.019 18.1432 342.639 18.3132 343.073 18.6532C343.513 18.9932 343.733 19.4798 343.733 20.1132C343.733 20.3998 343.659 20.6565 343.513 20.8832C343.373 21.1098 343.176 21.2898 342.923 21.4232C342.676 21.5498 342.396 21.6132 342.083 21.6132L342.073 21.5532C342.673 21.5532 343.149 21.7065 343.503 22.0132C343.856 22.3132 344.033 22.7232 344.033 23.2432C344.033 23.8565 343.816 24.3432 343.383 24.7032C342.949 25.0632 342.359 25.2432 341.613 25.2432H339.263V18.1432ZM341.613 24.4232C342.086 24.4232 342.459 24.3198 342.733 24.1132C343.013 23.8998 343.153 23.6098 343.153 23.2432C343.153 22.8632 343.019 22.5698 342.753 22.3632C342.486 22.1565 342.106 22.0532 341.613 22.0532H340.103V24.4232H341.613ZM341.213 21.2232C341.739 21.2232 342.143 21.1298 342.423 20.9432C342.709 20.7498 342.853 20.4732 342.853 20.1132C342.853 19.7465 342.709 19.4632 342.423 19.2632C342.143 19.0632 341.739 18.9632 341.213 18.9632H340.103V21.2232H341.213ZM347.409 18.1432H348.529L350.699 25.2432H349.839L347.969 18.8832L346.099 25.2432H345.239L347.409 18.1432ZM346.329 23.2132L346.619 22.4432H349.319L349.609 23.2132H346.329ZM354.435 18.1432C355.188 18.1432 355.778 18.3365 356.205 18.7232C356.638 19.1032 356.855 19.6232 356.855 20.2832C356.855 20.5965 356.782 20.8832 356.635 21.1432C356.495 21.4032 356.308 21.6098 356.075 21.7632C355.848 21.9165 355.612 21.9998 355.365 22.0132L355.055 21.8932C355.622 21.8932 356.028 21.9898 356.275 22.1832C356.528 22.3698 356.678 22.6932 356.725 23.1532L356.925 25.2432H356.075L355.895 23.2332C355.868 22.9198 355.735 22.6998 355.495 22.5732C355.262 22.4398 354.882 22.3732 354.355 22.3732H353.045V25.2432H352.205V18.1432H354.435ZM354.435 21.5532C354.928 21.5532 355.308 21.4432 355.575 21.2232C355.842 21.0032 355.975 20.6832 355.975 20.2632C355.975 19.8498 355.842 19.5298 355.575 19.3032C355.308 19.0765 354.928 18.9632 354.435 18.9632H353.045V21.5532H354.435Z" fill="#6A6B6C"></path></g><g class="ApiFig1_label__fJyyX ApiFig1_labelActive__wEl2m"><rect width="89" height="36" transform="translate(0 20.2432)" fill="#08090C"></rect><rect x="50" y="46" width="43.8052" height="5.99999" transform="rotate(90 50 46)" fill="#07080A"></rect><path d="M47 89.6667C46.2636 89.6667 45.6667 90.2636 45.6667 91C45.6667 91.7364 46.2636 92.3333 47 92.3333C47.7364 92.3333 48.3333 91.7364 48.3333 91C48.3333 90.2636 47.7364 89.6667 47 89.6667ZM46.75 56L46.75 91L47.25 91L47.25 56L46.75 56Z" fill="#525252"></path><path d="M14.44 35.1432H15.56L17.73 42.2432H16.87L15 35.8832L13.13 42.2432H12.27L14.44 35.1432ZM13.36 40.2132L13.65 39.4432H16.35L16.64 40.2132H13.36ZM24.1561 40.0132C24.0161 40.7598 23.7261 41.3465 23.2861 41.7732C22.8461 42.1932 22.2961 42.4032 21.6361 42.4032C21.0628 42.4032 20.5661 42.2532 20.1461 41.9532C19.7328 41.6532 19.4194 41.2265 19.2061 40.6732C18.9928 40.1198 18.8861 39.4632 18.8861 38.7032C18.8861 37.9365 18.9928 37.2765 19.2061 36.7232C19.4194 36.1632 19.7328 35.7332 20.1461 35.4332C20.5661 35.1332 21.0628 34.9832 21.6361 34.9832C22.2561 34.9832 22.7794 35.1798 23.2061 35.5732C23.6328 35.9665 23.9294 36.5132 24.0961 37.2132L23.1961 37.2732C23.0694 36.8065 22.8728 36.4465 22.6061 36.1932C22.3394 35.9332 22.0161 35.8032 21.6361 35.8032C21.2361 35.8032 20.8961 35.9165 20.6161 36.1432C20.3428 36.3698 20.1328 36.6998 19.9861 37.1332C19.8394 37.5665 19.7661 38.0898 19.7661 38.7032C19.7661 39.3165 19.8394 39.8398 19.9861 40.2732C20.1328 40.6998 20.3428 41.0265 20.6161 41.2532C20.8961 41.4732 21.2361 41.5832 21.6361 41.5832C22.0494 41.5832 22.3961 41.4432 22.6761 41.1632C22.9628 40.8765 23.1594 40.4732 23.2661 39.9532L24.1561 40.0132ZM30.5822 35.9632H28.4122V42.2432H27.5722V35.9632H25.4022V35.1432H30.5822V35.9632ZM36.5283 35.9632H34.9083V41.4232H36.5883V42.2432H32.3883V41.4232H34.0683V35.9632H32.4483V35.1432H36.5283V35.9632ZM40.9844 42.4032C40.4377 42.4032 39.9677 42.2532 39.5744 41.9532C39.1877 41.6532 38.891 41.2265 38.6844 40.6732C38.4777 40.1132 38.3744 39.4565 38.3744 38.7032C38.3744 37.9432 38.4777 37.2832 38.6844 36.7232C38.891 36.1632 39.1877 35.7332 39.5744 35.4332C39.9677 35.1332 40.4377 34.9832 40.9844 34.9832C41.531 34.9832 41.9977 35.1332 42.3844 35.4332C42.7777 35.7332 43.0777 36.1632 43.2844 36.7232C43.491 37.2832 43.5944 37.9432 43.5944 38.7032C43.5944 39.4565 43.491 40.1132 43.2844 40.6732C43.0777 41.2265 42.7777 41.6532 42.3844 41.9532C41.9977 42.2532 41.531 42.4032 40.9844 42.4032ZM40.9844 41.5832C41.3444 41.5832 41.6544 41.4665 41.9144 41.2332C42.181 40.9998 42.381 40.6665 42.5144 40.2332C42.6544 39.7998 42.7244 39.2898 42.7244 38.7032C42.7244 38.1098 42.6544 37.5965 42.5144 37.1632C42.381 36.7232 42.181 36.3865 41.9144 36.1532C41.6544 35.9198 41.3444 35.8032 40.9844 35.8032C40.6244 35.8032 40.311 35.9198 40.0444 36.1532C39.7844 36.3865 39.5844 36.7232 39.4444 37.1632C39.311 37.5965 39.2444 38.1098 39.2444 38.7032C39.2444 39.2898 39.311 39.7998 39.4444 40.2332C39.5844 40.6665 39.7844 40.9998 40.0444 41.2332C40.311 41.4665 40.6244 41.5832 40.9844 41.5832ZM46.4605 35.1432L48.8505 41.1832V35.1432H49.6905V42.2432H48.4005L46.1105 36.4032V42.2432H45.2705V35.1432H46.4605ZM58.2627 35.1432H60.2127C61.0193 35.1432 61.6393 35.3132 62.0727 35.6532C62.5127 35.9932 62.7327 36.4798 62.7327 37.1132C62.7327 37.3998 62.6593 37.6565 62.5127 37.8832C62.3727 38.1098 62.176 38.2898 61.9227 38.4232C61.676 38.5498 61.396 38.6132 61.0827 38.6132L61.0727 38.5532C61.6727 38.5532 62.1493 38.7065 62.5027 39.0132C62.856 39.3132 63.0327 39.7232 63.0327 40.2432C63.0327 40.8565 62.816 41.3432 62.3827 41.7032C61.9493 42.0632 61.3593 42.2432 60.6127 42.2432H58.2627V35.1432ZM60.6127 41.4232C61.086 41.4232 61.4593 41.3198 61.7327 41.1132C62.0127 40.8998 62.1527 40.6098 62.1527 40.2432C62.1527 39.8632 62.0193 39.5698 61.7527 39.3632C61.486 39.1565 61.106 39.0532 60.6127 39.0532H59.1027V41.4232H60.6127ZM60.2127 38.2232C60.7393 38.2232 61.1427 38.1298 61.4227 37.9432C61.7093 37.7498 61.8527 37.4732 61.8527 37.1132C61.8527 36.7465 61.7093 36.4632 61.4227 36.2632C61.1427 36.0632 60.7393 35.9632 60.2127 35.9632H59.1027V38.2232H60.2127ZM66.4088 35.1432H67.5288L69.6988 42.2432H68.8388L66.9688 35.8832L65.0988 42.2432H64.2388L66.4088 35.1432ZM65.3288 40.2132L65.6188 39.4432H68.3188L68.6088 40.2132H65.3288ZM73.4348 35.1432C74.1882 35.1432 74.7782 35.3365 75.2048 35.7232C75.6382 36.1032 75.8548 36.6232 75.8548 37.2832C75.8548 37.5965 75.7815 37.8832 75.6348 38.1432C75.4948 38.4032 75.3082 38.6098 75.0748 38.7632C74.8482 38.9165 74.6115 38.9998 74.3648 39.0132L74.0548 38.8932C74.6215 38.8932 75.0282 38.9898 75.2748 39.1832C75.5282 39.3698 75.6782 39.6932 75.7248 40.1532L75.9248 42.2432H75.0748L74.8948 40.2332C74.8682 39.9198 74.7348 39.6998 74.4948 39.5732C74.2615 39.4398 73.8815 39.3732 73.3548 39.3732H72.0448V42.2432H71.2048V35.1432H73.4348ZM73.4348 38.5532C73.9282 38.5532 74.3082 38.4432 74.5748 38.2232C74.8415 38.0032 74.9748 37.6832 74.9748 37.2632C74.9748 36.8498 74.8415 36.5298 74.5748 36.3032C74.3082 36.0765 73.9282 35.9632 73.4348 35.9632H72.0448V38.5532H73.4348Z" fill="#6A6B6C"></path></g></svg>